<svg width="53" height="52" viewBox="0 0 53 52" fill="none" xmlns="http://www.w3.org/2000/svg">
<path d="M49.5488 14.1734C48.2888 9.53563 43.4653 4.71125 38.8266 3.45125C35.9822 2.7425 32.1722 2.01219 27 2C21.8278 2.01219 18.0178 2.7425 15.1734 3.45125C10.5356 4.71125 5.71125 9.53469 4.45125 14.1734C3.7425 17.0178 3.01219 20.8278 3 26C3.01219 31.1722 3.7425 34.9822 4.45125 37.8266C5.71125 42.4653 10.5356 47.2887 15.1734 48.5487C18.0178 49.2575 21.8297 49.9878 27 50C32.1712 49.9878 35.9822 49.2575 38.8266 48.5487C43.4653 47.2887 48.2888 42.4653 49.5488 37.8266C50.2575 34.9822 50.9878 31.1703 51 26C50.9878 20.8278 50.2575 17.0178 49.5488 14.1734Z" stroke="black" stroke-width="2"/>
<circle cx="18.4234" cy="26.468" r="2.33974" fill="#DC2626"/>
<circle cx="26.8465" cy="26.468" r="2.33974" fill="#DC2626"/>
<circle cx="35.2695" cy="26.468" r="2.33974" fill="#DC2626"/>
</svg>
