<svg width="52" height="52" viewBox="0 0 52 52" fill="none" xmlns="http://www.w3.org/2000/svg">
<mask id="mask0_1244_39421" style="mask-type:alpha" maskUnits="userSpaceOnUse" x="4" y="3" width="44" height="46">
<path d="M30.0625 48.2083H21.3958C13.2248 48.2083 9.13932 48.2083 6.60091 45.5826C4.0625 42.957 4.0625 38.731 4.0625 30.2791V26.9835C4.0625 22.0252 4.0625 19.5461 5.18743 17.4909C6.31237 15.4358 8.36755 13.1603 12.4779 10.6093L16.8112 7.91989C21.1562 5.2233 23.3286 3.875 25.7292 3.875C28.1297 3.875 30.3022 5.22329 34.6471 7.91988L38.9804 10.6093C43.0908 13.1603 45.3741 15.4358 46.499 17.4909C47.624 19.5461 47.3958 22.0252 47.3958 26.9835V30.2791C47.3958 38.731 47.3958 42.957 44.8574 45.5826C42.319 48.2083 38.2335 48.2083 30.0625 48.2083Z" fill="url(#paint0_linear_1244_39421)"/>
</mask>
<g mask="url(#mask0_1244_39421)">
<path d="M21.6615 46.6654C17.5467 46.6654 14.5647 46.6631 12.2895 46.3467C10.0466 46.0348 8.63944 45.4348 7.58549 44.3446C6.52696 43.2497 5.94076 41.7802 5.63708 39.4438C5.33011 37.0821 5.32812 33.9894 5.32812 29.7361V26.4405C5.32812 23.9429 5.32914 22.1381 5.46436 20.6991C5.59767 19.2804 5.85625 18.2941 6.33025 17.4281C6.80333 16.5638 7.48467 15.831 8.58677 14.987C9.70699 14.1291 11.1993 13.2016 13.2709 11.916L17.6042 9.22658C19.7941 7.86746 21.3731 6.88896 22.7023 6.24256C24.0111 5.60611 25.0001 5.33203 25.9948 5.33203C26.9895 5.33203 27.9785 5.60611 29.2873 6.24256C30.6165 6.88896 32.1955 7.86746 34.3854 9.22658L38.7187 11.916C40.7903 13.2016 42.2826 14.1291 43.4028 14.987C44.5049 15.831 45.1862 16.5638 45.6593 17.4281C46.1333 18.2941 46.3919 19.2804 46.5252 20.6991C46.6604 22.1381 46.6615 23.9429 46.6615 26.4405V29.7361C46.6615 33.9894 46.6595 37.0821 46.3525 39.4438C46.0488 41.7802 45.4626 43.2497 44.4041 44.3446C43.3501 45.4348 41.9429 46.0348 39.7001 46.3467C37.4249 46.6631 34.4428 46.6654 30.3281 46.6654H21.6615Z" stroke="#090D14" stroke-width="2"/>
</g>
<path d="M15.504 28.6616C21.3143 22.4363 30.6857 22.4363 36.496 28.6616C37.0381 29.2425 37.952 29.2771 38.5372 28.739C39.1224 28.2008 39.1573 27.2936 38.6151 26.7127C31.6615 19.2624 20.3385 19.2624 13.3849 26.7127C12.8427 27.2936 12.8776 28.2008 13.4628 28.739C14.048 29.2771 14.9619 29.2425 15.504 28.6616Z" fill="#DC2626"/>
<path d="M19.3562 32.7881C23.0392 28.8421 28.9614 28.8421 32.6444 32.7881C33.1866 33.369 34.1005 33.4036 34.6857 32.8655C35.2709 32.3273 35.3057 31.4201 34.7636 30.8392C29.9373 25.6682 22.0633 25.6682 17.237 30.8392C16.6948 31.4201 16.7297 32.3273 17.3149 32.8655C17.9001 33.4036 18.814 33.369 19.3562 32.7881Z" fill="#090D14"/>
<path d="M23.208 36.9156C24.7637 35.2488 27.2369 35.2488 28.7925 36.9156C29.3347 37.4965 30.2486 37.5311 30.8338 36.9929C31.419 36.4547 31.4539 35.5476 30.9117 34.9667C28.2127 32.0749 23.7878 32.0749 21.0888 34.9667C20.5467 35.5476 20.5815 36.4547 21.1667 36.9929C21.7519 37.5311 22.6658 37.4965 23.208 36.9156Z" fill="#090D14"/>
<defs>
<linearGradient id="paint0_linear_1244_39421" x1="13.9191" y1="12.6409" x2="29.9592" y2="49.1343" gradientUnits="userSpaceOnUse">
<stop stop-color="#5CEFC5"/>
<stop offset="1" stop-color="#03B8B0"/>
</linearGradient>
</defs>
</svg>
