<svg width="52" height="52" viewBox="0 0 52 52" fill="none" xmlns="http://www.w3.org/2000/svg">
<path d="M47.6693 26V13.2469C47.6693 11.5332 47.6693 10.6763 47.2487 9.7926C47.0088 9.28862 46.4625 8.60305 46.0248 8.2567C45.2574 7.64945 44.6169 7.50275 43.3359 7.20936C41.3433 6.75295 39.1454 6.5 36.8359 6.5C32.6823 6.5 28.8898 7.31821 26.0026 8.66667C23.1154 10.0151 19.3229 10.8333 15.1693 10.8333C12.8598 10.8333 10.6619 10.5804 8.66927 10.124C6.58934 9.64758 4.33594 11.1131 4.33594 13.2469V36.5864C4.33594 38.3002 4.33594 39.1571 4.75652 40.0407C4.9964 40.5447 5.54269 41.2303 5.9804 41.5766C6.74786 42.1839 7.38833 42.3306 8.66927 42.624C9.65924 42.8507 10.6999 43.0273 11.7797 43.1475C12.616 43.2406 13.0341 43.2872 14.4653 43.2511C15.8966 43.2149 16.7716 43.0725 18.5215 42.7876L26.8146 41.4375" stroke="#090D14" stroke-width="2" stroke-linecap="round"/>
<path d="M24.5817 31C23.7723 31 23.0479 30.7759 22.4085 30.3277C21.7691 29.8795 21.2638 29.2289 20.8926 28.3759C20.5215 27.5229 20.3359 26.4867 20.3359 25.2675C20.3359 24.0337 20.5237 22.9928 20.8994 22.1446C21.2794 21.2916 21.7914 20.6482 22.4353 20.2145C23.0792 19.7759 23.7969 19.5566 24.5884 19.5566C25.192 19.5566 25.6884 19.6675 26.0774 19.8892C26.4664 20.106 26.775 20.3687 27.003 20.6771C27.2211 20.9675 27.3922 21.2424 27.5162 21.5019C27.5265 21.5235 27.5482 21.5373 27.5721 21.5373C27.606 21.5373 27.6335 21.5099 27.6335 21.4759V17.2174C27.6335 16.545 28.1785 16 28.8509 16C29.5232 16 30.0683 16.545 30.0683 17.2174V29.6109C30.0683 30.2703 29.5337 30.8048 28.8744 30.8048H28.5551C28.0721 30.8048 27.6805 30.4132 27.6805 29.9301V29.1455C27.6805 29.0957 27.6401 29.0554 27.5904 29.0554C27.5553 29.0554 27.5236 29.0758 27.5082 29.1074C27.3843 29.362 27.2114 29.6314 26.9896 29.9157C26.7526 30.2145 26.4396 30.4699 26.0506 30.6819C25.6615 30.894 25.1719 31 24.5817 31ZM25.2591 28.853C25.7733 28.853 26.2115 28.7036 26.5737 28.4048C26.9359 28.1012 27.2109 27.6795 27.3987 27.1398C27.5865 26.6 27.6805 25.9711 27.6805 25.253C27.6805 24.5349 27.5865 23.9108 27.3987 23.3807C27.2154 22.8506 26.9426 22.4386 26.5804 22.1446C26.2227 21.8506 25.7823 21.7036 25.2591 21.7036C24.7181 21.7036 24.2664 21.8554 23.9042 22.159C23.542 22.4627 23.2693 22.8819 23.0859 23.4169C22.9026 23.9518 22.8109 24.5639 22.8109 25.253C22.8109 25.947 22.9026 26.5663 23.0859 27.1108C23.2737 27.6506 23.5487 28.0771 23.9109 28.3904C24.2776 28.6988 24.727 28.853 25.2591 28.853ZM25.738 18.8699C25.2809 18.8699 24.9103 18.4993 24.9103 18.0422C24.9103 17.585 25.2809 17.2145 25.738 17.2145H30.5082C30.9654 17.2145 31.3359 17.585 31.3359 18.0422C31.3359 18.4993 30.9654 18.8699 30.5082 18.8699H25.738Z" fill="#090D14"/>
<path d="M44.9431 35.8077V35.5093C44.9431 35.2901 45.0084 35.0884 45.1389 34.9042C45.272 34.72 45.4652 34.5717 45.7184 34.4594C45.9716 34.347 46.2783 34.2908 46.6385 34.2908C47.0092 34.2908 47.3198 34.347 47.5704 34.4594C47.821 34.5699 48.0102 34.7172 48.1381 34.9014C48.2686 35.0856 48.3339 35.2882 48.3339 35.5093V35.8077C48.3339 36.0268 48.2686 36.2285 48.1381 36.4127C48.0076 36.5969 47.8157 36.7452 47.5625 36.8576C47.312 36.9699 47.0039 37.0261 46.6385 37.0261C46.2731 37.0261 45.9638 36.9699 45.7106 36.8576C45.4574 36.7452 45.2655 36.5969 45.135 36.4127C45.0071 36.2285 44.9431 36.0268 44.9431 35.8077ZM45.9651 35.5093V35.8077C45.9651 35.9532 46.0147 36.0867 46.1138 36.2083C46.213 36.3298 46.3879 36.3906 46.6385 36.3906C46.8917 36.3906 47.0653 36.3308 47.1593 36.211C47.2558 36.0895 47.3041 35.955 47.3041 35.8077V35.5093C47.3041 35.3619 47.2585 35.2275 47.1671 35.1059C47.0757 34.9825 46.8995 34.9208 46.6385 34.9208C46.3931 34.9208 46.2196 34.9825 46.1178 35.1059C46.016 35.2275 45.9651 35.3619 45.9651 35.5093ZM40.8672 32.5696V32.2712C40.8672 32.0501 40.9337 31.8475 41.0669 31.6633C41.2 31.4791 41.3932 31.3318 41.6464 31.2213C41.8996 31.1089 42.2063 31.0527 42.5665 31.0527C42.9345 31.0527 43.2438 31.1089 43.4944 31.2213C43.7476 31.3318 43.9382 31.4791 44.0661 31.6633C44.194 31.8475 44.2579 32.0501 44.2579 32.2712V32.5696C44.2579 32.7906 44.1927 32.9932 44.0622 33.1774C43.9343 33.3597 43.7437 33.5062 43.4905 33.6167C43.2373 33.7272 42.9293 33.7825 42.5665 33.7825C42.1984 33.7825 41.8878 33.7272 41.6346 33.6167C41.384 33.5062 41.1935 33.3588 41.063 33.1746C40.9324 32.9904 40.8672 32.7887 40.8672 32.5696ZM41.8969 32.2712V32.5696C41.8969 32.7169 41.9452 32.8514 42.0418 32.9729C42.141 33.0927 42.3159 33.1525 42.5665 33.1525C42.8171 33.1525 42.9893 33.0927 43.0833 32.9729C43.1799 32.8514 43.2282 32.7169 43.2282 32.5696V32.2712C43.2282 32.1238 43.1825 31.9894 43.0911 31.8678C42.9998 31.7444 42.8249 31.6827 42.5665 31.6827C42.3185 31.6827 42.1449 31.7444 42.0457 31.8678C41.9465 31.9912 41.8969 32.1257 41.8969 32.2712ZM42.1445 36.8686C41.8344 36.8686 41.677 36.4955 41.8934 36.2734L46.7233 31.3161C46.7892 31.2484 46.8798 31.2102 46.9743 31.2102C47.2845 31.2102 47.4418 31.5833 47.2254 31.8054L42.3956 36.7627C42.3296 36.8304 42.2391 36.8686 42.1445 36.8686Z" fill="#DC2626"/>
<path d="M35.6408 43.0003C34.5499 43.0003 33.6137 42.7943 32.832 42.3824C32.0547 41.9673 31.4563 41.3692 31.0368 40.5883C30.6216 39.8041 30.4141 38.8601 30.4141 37.7563C30.4185 36.6524 30.6283 35.7134 31.0434 34.939C31.4629 34.1614 32.0613 33.5683 32.8386 33.1597C33.6203 32.7512 34.5543 32.5469 35.6408 32.5469C36.7272 32.5469 37.6612 32.7512 38.4429 33.1597C39.2246 33.5683 39.823 34.1614 40.2381 34.939C40.6577 35.7167 40.8674 36.6557 40.8674 37.7563C40.8674 38.8634 40.6577 39.809 40.2381 40.5933C39.823 41.3742 39.2246 41.9706 38.4429 42.3824C37.6656 42.7943 36.7316 43.0003 35.6408 43.0003ZM35.6408 41.4533C36.4887 41.4533 37.1577 41.1419 37.648 40.5191C38.1426 39.8931 38.3899 38.9721 38.3899 37.7563C38.3899 36.9523 38.2773 36.2768 38.052 35.7298C37.8268 35.1829 37.5088 34.771 37.0981 34.4942C36.6874 34.2141 36.2016 34.0741 35.6408 34.0741C34.7972 34.0741 34.1304 34.3871 33.6402 35.0132C33.15 35.6359 32.9026 36.5503 32.8982 37.7563C32.8938 38.5635 33.002 39.2423 33.2228 39.7926C33.4481 40.3428 33.766 40.758 34.1767 41.0381C34.5875 41.3149 35.0755 41.4533 35.6408 41.4533Z" fill="#DC2626"/>
</svg>
