<svg width="52" height="52" viewBox="0 0 52 52" fill="none" xmlns="http://www.w3.org/2000/svg">
<path d="M21.2865 43.416C16.7897 43.416 13.5177 43.4139 11.0185 43.0779C8.54806 42.7457 6.98304 42.1039 5.81162 40.9325C4.64019 39.7611 3.99839 38.1961 3.66626 35.7257C3.33025 33.2265 3.32812 29.9545 3.32812 25.4577C3.32812 20.9609 3.33025 17.6889 3.66625 15.1897C3.99839 12.7193 4.64019 11.1543 5.81161 9.98284C6.98304 8.81142 8.54806 8.16962 11.0185 7.83748C13.5177 7.50148 16.7897 7.49935 21.2865 7.49935L30.7656 7.49935C35.2624 7.49935 38.5344 7.50147 41.0336 7.83748C43.504 8.16962 45.069 8.81141 46.2405 9.98284C47.4119 11.1543 48.0537 12.7193 48.3858 15.1897C48.7218 17.6889 48.724 20.9609 48.724 25.4577C48.724 29.9545 48.7218 33.2265 48.3858 35.7257C48.0537 38.1961 47.4119 39.7611 46.2405 40.9325C45.069 42.1039 43.504 42.7457 41.0336 43.0779C38.5344 43.4139 35.2624 43.416 30.7656 43.416L21.2865 43.416Z" stroke="#090D14" stroke-width="2"/>
<path d="M22.7802 30.5603C22.6108 30.7319 22.4097 30.868 22.1883 30.9609C21.9669 31.0538 21.7296 31.1016 21.49 31.1016C21.2504 31.1016 21.0131 31.0538 20.7917 30.9609C20.5703 30.868 20.3692 30.7319 20.1998 30.5603L17.6997 28.0265L15.2823 30.4741C14.9365 30.8003 14.4792 30.9779 14.0067 30.9695C13.5341 30.961 13.0833 30.7672 12.7491 30.4288C12.4149 30.0905 12.2235 29.634 12.2151 29.1556C12.2068 28.6771 12.3822 28.2141 12.7044 27.864L15.1194 25.4165L12.7871 23.0527C12.6129 22.8822 12.4741 22.6784 12.3786 22.453C12.2831 22.2277 12.2329 21.9853 12.2309 21.7401C12.2289 21.4949 12.2752 21.2517 12.367 21.0248C12.4588 20.7979 12.5944 20.5918 12.7657 20.4185C12.937 20.2452 13.1408 20.1081 13.365 20.0154C13.5892 19.9226 13.8294 19.876 14.0716 19.8783C14.3137 19.8805 14.5531 19.9316 14.7756 20.0285C14.998 20.1254 15.1993 20.2661 15.3674 20.4426L17.6997 22.804L20.1171 20.3564C20.4613 20.0202 20.9221 19.8343 21.4004 19.8387C21.8786 19.8431 22.336 20.0376 22.6741 20.3801C23.0121 20.7227 23.2037 21.186 23.2076 21.6702C23.2115 22.1544 23.0275 22.6208 22.6951 22.9689L20.2776 25.4165L22.7802 27.9478C22.9497 28.1193 23.0841 28.3229 23.1759 28.547C23.2676 28.7712 23.3148 29.0114 23.3148 29.254C23.3148 29.4966 23.2676 29.7369 23.1759 29.961C23.0841 30.1851 22.9497 30.3888 22.7802 30.5603ZM31.0782 22.996H31.0368C30.7187 22.9967 30.4038 23.061 30.1102 23.1852C29.8167 23.3094 29.5502 23.4912 29.3263 23.72C29.1023 23.9488 28.9252 24.2202 28.8052 24.5185C28.6851 24.8168 28.6245 25.1362 28.6267 25.4583C28.6267 25.9445 28.7689 26.4198 29.0353 26.8243C29.3016 27.2288 29.6803 27.5444 30.1236 27.7313C30.5669 27.9182 31.0548 27.9681 31.5261 27.8747C31.9973 27.7813 32.4307 27.5487 32.7715 27.2063C33.1124 26.8639 33.3456 26.427 33.4416 25.9507C33.5376 25.4743 33.4922 24.9799 33.3111 24.5296C33.13 24.0794 32.8214 23.6935 32.424 23.4205C32.0266 23.1476 31.5583 22.9999 31.0782 22.996ZM43.0898 25.4583C43.0898 25.9436 42.9481 26.4179 42.6827 26.8219C42.4172 27.2259 42.0398 27.5414 41.5978 27.729C41.1558 27.9165 40.669 27.9676 40.1984 27.876C39.7278 27.7843 39.2944 27.5539 38.9527 27.2137C38.611 26.8735 38.3762 26.4387 38.2777 25.9639C38.1793 25.489 38.2216 24.9953 38.3993 24.5447C38.5771 24.0941 38.8823 23.7067 39.2768 23.4312C39.6713 23.1557 40.1373 23.0043 40.6165 22.996H40.6578C41.3028 22.996 41.9214 23.2554 42.3775 23.7172C42.8336 24.179 43.0898 24.8053 43.0898 25.4583ZM38.2696 30.287C38.2709 30.9425 38.0158 31.5718 37.5601 32.0374C37.1043 32.503 36.485 32.7669 35.8376 32.7714C35.5193 32.7734 35.2038 32.7117 34.9091 32.5899C34.6145 32.468 34.3465 32.2885 34.1205 32.0616C33.8946 31.8346 33.7151 31.5647 33.5924 31.2674C33.4697 30.97 33.4062 30.6511 33.4056 30.3288V30.287C33.4056 29.6339 33.6618 29.0076 34.1179 28.5458C34.574 28.0841 35.1926 27.8246 35.8376 27.8246C36.4826 27.8246 37.1012 28.0841 37.5573 28.5458C38.0134 29.0076 38.2696 29.6339 38.2696 30.287ZM33.4056 20.6297V20.5879C33.4111 19.9367 33.6711 19.3142 34.1288 18.8566C34.5865 18.3991 35.2046 18.1437 35.8479 18.1465C36.4911 18.1493 37.107 18.4099 37.5609 18.8714C38.0147 19.3329 38.2695 19.9576 38.2695 20.6088C38.2695 21.26 38.0147 21.8848 37.5609 22.3462C37.107 22.8077 36.4911 23.0683 35.8479 23.0711C35.2046 23.0739 34.5865 22.8185 34.1288 22.361C33.6711 21.9034 33.4111 21.2809 33.4056 20.6297Z" fill="#DC2626"/>
</svg>
