<svg width="52" height="52" viewBox="0 0 52 52" fill="none" xmlns="http://www.w3.org/2000/svg">
<path d="M32.8916 39.838C32.4327 40.1544 32.3118 40.7904 32.7005 41.1899C33.563 42.0765 34.6851 42.6813 35.9177 42.908C37.4837 43.1959 39.0999 42.85 40.4108 41.9463C41.7218 41.0426 42.62 39.6552 42.908 38.0892C43.1346 36.8565 42.9685 35.5927 42.4468 34.4712C42.2117 33.9658 41.5743 33.8526 41.1154 34.1689C40.6565 34.4853 40.5552 35.1124 40.7465 35.636C40.9884 36.2982 41.0525 37.0189 40.9228 37.7242C40.7316 38.7636 40.1354 39.6846 39.2652 40.2844C38.3951 40.8843 37.3222 41.1139 36.2828 40.9228C35.5775 40.7931 34.9268 40.4769 34.3939 40.0152C33.9726 39.6502 33.3505 39.5217 32.8916 39.838Z" fill="#DC2626"/>
<path d="M21 16.6059C21 21.7941 17.1944 26 12.5 26C7.80558 26 4 21.7941 4 16.6059C4 13.3596 7.3276 9.02694 9.81874 6.23819C11.2935 4.58727 13.7065 4.58727 15.1813 6.23819C17.6724 9.02694 21 13.3596 21 16.6059Z" stroke="#090D14" stroke-width="2" stroke-linecap="round"/>
<path d="M48 33.2378C48 41.3907 41.9558 48 34.5 48C27.0442 48 21 41.3907 21 33.2378C21 28.1366 26.285 21.328 30.2415 16.9457C32.5837 14.3514 36.4163 14.3514 38.7585 16.9457C42.715 21.328 48 28.1366 48 33.2378Z" stroke="#090D14" stroke-width="2" stroke-linecap="round"/>
</svg>
